<?xml version="1.0" encoding="UTF-8" standalone="no"?>
<svg width="120px" height="50px" viewBox="0 0 120 50" version="1.1" xmlns="http://www.w3.org/2000/svg" xmlns:xlink="http://www.w3.org/1999/xlink">
    <!-- Generator: Sketch 39.1 (31720) - http://www.bohemiancoding.com/sketch -->
    <title>Slice</title>
    <desc>Created with Sketch.</desc>
    <defs>
        <path d="M0.296573209,25.9690667 L11.5663551,25.9690667 C16.9395639,25.9690667 19.6959502,23.8634667 19.6959502,18.10816 C19.6959502,15.4410667 17.9514019,13.05472 15.3345794,12.6336 C17.846729,12.42304 19.0679128,9.4752 19.0679128,7.29941333 C19.0679128,2.94784 16.834891,0.280746667 11.3919003,0.280746667 L0.296573209,0.280746667 L0.296573209,25.9690667 L0.296573209,25.9690667 Z M7.06542056,20.21376 L7.06542056,15.2305067 L11.2174455,15.2305067 C12.5781931,15.2305067 12.9271028,16.4587733 12.9271028,17.7572267 C12.9271028,19.3013333 12.5433022,20.21376 11.2174455,20.21376 L7.06542056,20.21376 L7.06542056,20.21376 Z M7.06542056,9.82613333 L7.06542056,6.03605333 L10.8685358,6.03605333 C11.6361371,6.03605333 12.4386293,6.49226667 12.4386293,8.03637333 C12.4386293,9.01898667 11.9152648,9.82613333 10.8685358,9.82613333 L7.06542056,9.82613333 L7.06542056,9.82613333 Z M21.3358255,13.3003733 C21.3358255,24.9864533 25.6274143,26.10944 31.9077882,26.10944 C38.188162,26.10944 42.4797508,24.63552 42.4797508,13.3003733 C42.4797508,1.26336 37.9439252,0.10528 31.9077882,0.10528 C26.0461059,0.10528 21.3358255,1.26336 21.3358255,13.3003733 L21.3358255,13.3003733 Z M28.1046729,13.3003733 C28.1046729,7.01866667 28.8373832,6.21152 31.9077882,6.21152 C35.082866,6.21152 35.7109034,7.33450667 35.7109034,13.3003733 C35.7109034,18.73984 34.9084112,20.0032 31.9077882,20.0032 C28.4884735,20.0032 28.1046729,18.6696533 28.1046729,13.3003733 L28.1046729,13.3003733 Z M44.0149533,6.38698667 L50.434891,6.38698667 L50.434891,25.9690667 L57.2037383,25.9690667 L57.2037383,6.38698667 L63.8330218,6.38698667 L63.8330218,0.280746667 L44.0149533,0.280746667 L44.0149533,6.38698667 L44.0149533,6.38698667 Z M65.3682243,25.9690667 L72.3115265,25.9690667 L73.776947,21.47712 L80.6504673,21.47712 L82.1507788,25.9690667 L89.094081,25.9690667 L81.3482866,0.280746667 L73.3582555,0.280746667 L65.3682243,25.9690667 L65.3682243,25.9690667 Z M75.3121495,15.68672 L77.4404984,8.80842667 L79.2897196,15.68672 L75.3121495,15.68672 L75.3121495,15.68672 Z M90.8735202,25.9690667 L97.6772586,25.9690667 L97.6772586,13.1950933 L105.004361,25.9690667 L111.773209,25.9690667 L111.773209,0.280746667 L105.004361,0.280746667 L105.004361,13.4056533 L97.7121495,0.280746667 L90.8735202,0.280746667 L90.8735202,25.9690667 L90.8735202,25.9690667 Z" id="path-1"></path>
        <path d="M0.148286604,12.9845333 L1.43925234,12.9845333 L1.43925234,0.140373333 L0.148286604,0.140373333 L0.148286604,12.9845333 L0.148286604,12.9845333 Z M3.88161994,12.9845333 L5.19003115,12.9845333 L5.19003115,2.56181333 L12.011215,12.9845333 L13.3021807,12.9845333 L13.3021807,0.140373333 L12.011215,0.140373333 L12.011215,10.5630933 L5.20747664,0.140373333 L3.88161994,0.140373333 L3.88161994,12.9845333 L3.88161994,12.9845333 Z M15.1339564,0.140373333 L19.6174455,12.9845333 L20.9084112,12.9845333 L25.6012461,0.140373333 L24.188162,0.140373333 L20.2803738,10.9140267 L16.5470405,0.140373333 L15.1339564,0.140373333 L15.1339564,0.140373333 Z M27.4330218,10.8262933 C27.4330218,12.8090667 28.6542056,13.10736 29.8056075,13.0371733 L35.1439252,12.73888 L35.1439252,11.73872 L29.8056075,11.73872 C29.2996885,11.73872 28.741433,11.7562667 28.7239875,10.8262933 L28.7239875,7.31696 L34.4461059,7.14149333 L34.4461059,6.10624 L28.7239875,5.93077333 L28.7239875,2.42144 C28.7239875,1.94768 28.7239875,1.43882667 29.6311526,1.43882667 L35.1439252,1.43882667 L35.1439252,0.42112 L29.6311526,0.140373333 C28.4623053,0.0877333333 27.4330218,0.701866667 27.4330218,2.42144 L27.4330218,10.8262933 L27.4330218,10.8262933 Z M37.0629283,4.31648 C37.0629283,5.7904 37.376947,7.33450667 40.1682243,7.33450667 L42.6105919,7.33450667 C43.7445483,7.33450667 44.0411215,8.05392 44.0411215,9.05408 L44.0411215,10.2472533 C44.0411215,11.79136 42.5233645,11.8264533 41.8080997,11.8264533 C40.1856698,11.8264533 38.1445483,11.7036267 37.446729,11.63344 L37.446729,12.68624 C38.2492212,12.8266133 40.953271,13.1249067 41.8080997,13.1249067 C43.5352025,13.1249067 45.3320872,12.73888 45.3320872,10.2472533 L45.3320872,9.05408 C45.3320872,7.61525333 44.9308411,6.03605333 42.6105919,6.03605333 L40.1333333,6.03605333 C39.0866044,6.03605333 38.3538941,5.91322667 38.3538941,4.31648 L38.3538941,3.1584 C38.3538941,1.40373333 39.2959502,1.28090667 40.517134,1.33354667 C40.517134,1.33354667 43.7619938,1.43882667 44.8785047,1.50901333 L44.8785047,0.456213333 C44.2155763,0.36848 41.4417445,0.0350933333 40.517134,0.0350933333 C38.5632399,0.0350933333 37.0629283,0.614133333 37.0629283,3.1584 L37.0629283,4.31648 L37.0629283,4.31648 Z M46.9021807,1.43882667 L50.635514,1.43882667 L50.635514,12.9845333 L51.9264798,12.9845333 L51.9264798,1.43882667 L55.764486,1.43882667 L55.764486,0.140373333 L46.9021807,0.140373333 L46.9021807,1.43882667 L46.9021807,1.43882667 Z M57.1601246,12.9845333 L58.4510903,12.9845333 L59.1489097,2.49162667 L62.5333333,12.9845333 L63.85919,12.9845333 L67.1389408,2.49162667 L67.9239875,12.9845333 L69.2149533,12.9845333 L68.2380062,0.140373333 L66.4760125,0.140373333 L63.1788162,10.8262933 L59.776947,0.140373333 L57.9975078,0.140373333 L57.1601246,12.9845333 L57.1601246,12.9845333 Z M71.5700935,10.8262933 C71.5700935,12.8090667 72.7912773,13.10736 73.9426791,13.0371733 L79.2809969,12.73888 L79.2809969,11.73872 L73.9426791,11.73872 C73.4367601,11.73872 72.8785047,11.7562667 72.8610592,10.8262933 L72.8610592,7.31696 L78.5831776,7.14149333 L78.5831776,6.10624 L72.8610592,5.93077333 L72.8610592,2.42144 C72.8610592,1.94768 72.8610592,1.43882667 73.7682243,1.43882667 L79.2809969,1.43882667 L79.2809969,0.42112 L73.7682243,0.140373333 C72.5993769,0.0877333333 71.5700935,0.701866667 71.5700935,2.42144 L71.5700935,10.8262933 L71.5700935,10.8262933 Z M81.4616822,12.9845333 L82.7700935,12.9845333 L82.7700935,2.56181333 L89.5912773,12.9845333 L90.882243,12.9845333 L90.882243,0.140373333 L89.5912773,0.140373333 L89.5912773,10.5630933 L82.7875389,0.140373333 L81.4616822,0.140373333 L81.4616822,12.9845333 L81.4616822,12.9845333 Z M92.7140187,1.43882667 L96.447352,1.43882667 L96.447352,12.9845333 L97.7383178,12.9845333 L97.7383178,1.43882667 L101.576324,1.43882667 L101.576324,0.140373333 L92.7140187,0.140373333 L92.7140187,1.43882667 L92.7140187,1.43882667 Z M103.146417,4.31648 C103.146417,5.7904 103.460436,7.33450667 106.251713,7.33450667 L108.694081,7.33450667 C109.828037,7.33450667 110.124611,8.05392 110.124611,9.05408 L110.124611,10.2472533 C110.124611,11.79136 108.606854,11.8264533 107.891589,11.8264533 C106.269159,11.8264533 104.228037,11.7036267 103.530218,11.63344 L103.530218,12.68624 C104.33271,12.8266133 107.03676,13.1249067 107.891589,13.1249067 C109.618692,13.1249067 111.415576,12.73888 111.415576,10.2472533 L111.415576,9.05408 C111.415576,7.61525333 111.01433,6.03605333 108.694081,6.03605333 L106.216822,6.03605333 C105.170093,6.03605333 104.437383,5.91322667 104.437383,4.31648 L104.437383,3.1584 C104.437383,1.40373333 105.379439,1.28090667 106.600623,1.33354667 C106.600623,1.33354667 109.845483,1.43882667 110.961994,1.50901333 L110.961994,0.456213333 C110.299065,0.36848 107.525234,0.0350933333 106.600623,0.0350933333 C104.646729,0.0350933333 103.146417,0.614133333 103.146417,3.1584 L103.146417,4.31648 L103.146417,4.31648 Z" id="path-3"></path>
    </defs>
    <g id="Page-1" stroke="none" stroke-width="1" fill="none" fill-rule="evenodd">
        <g id="botan_vector_logo" transform="translate(4.000000, 4.000000)">
            <g id="Group-3">
                <mask id="mask-2" fill="white">
                    <use xlink:href="#path-1"></use>
                </mask>
                <g id="Clip-2"></g>
                <polygon id="Fill-1" fill="#FFFFFF" mask="url(#mask-2)" points="0.279127726 26.1375147 111.776698 26.1375147 111.776698 0.0701866667 0.279127726 0.0701866667"></polygon>
            </g>
            <g id="Group-6" transform="translate(0.000000, 29.000000)">
                <mask id="mask-4" fill="white">
                    <use xlink:href="#path-3"></use>
                </mask>
                <g id="Clip-5"></g>
                <polygon id="Fill-4" fill="#FFFFFF" mask="url(#mask-4)" points="0.11165109 13.1249067 111.441745 13.1249067 111.441745 0.0280746667 0.11165109 0.0280746667"></polygon>
            </g>
        </g>
    </g>
</svg>